<?xml version="1.0" encoding="UTF-8"?>
<svg viewBox="0 0 922 383.58" xmlns="http://www.w3.org/2000/svg">
<path d="m357.26 124.17c9.82-2.2114 20.469 5.609 21.862 15.475 1.6799 11.905-9.3375 21.05-18.258 26.687-9.8156 6.2025-20.466 11.744-25.871 22.588-4.6712 9.3713-5.3481 20.782-1.5071 30.559 7.4345 18.924 28.688 25.437 42.792 38.08 3.4487 3.0914 6.5084 6.6117 8.7243 10.697 2.9084 5.3616 4.0989 11.48 3.8247 17.55-0.55815 12.356-7.2463 23.385-16.326 31.453-9.3505 8.3084-22.116 12.491-30.024 22.449-3.3912 4.27-5.96 9.6694-5.5772 15.249 0.33127 4.8281 2.7265 9.586 6.677 12.447 1.9243 1.3934 4.1428 2.1737 6.5072 2.3465 1.4446 0.10558 1.4379-2.1449 0-2.25-5.1523-0.37656-8.9839-4.7507-10.368-9.4762-1.6112-5.5026 0.35869-11.164 3.5742-15.686 3.6627-5.1508 8.931-8.7979 14.231-12.087 5.3718-3.3337 10.834-6.4851 15.659-10.606 9.0395-7.7208 15.94-18.219 17.557-30.154 0.82057-6.0533 0.3189-12.348-1.841-18.087-1.7345-4.609-4.477-8.735-7.8338-12.321-6.5806-7.03-15.073-11.904-23.053-17.139-7.9853-5.2376-16.155-11.135-20.793-19.726-5.0829-9.4153-5.238-21.319-0.82445-31.02 2.3629-5.1936 5.9756-9.4774 10.422-13.022 4.8427-3.86 10.33-6.8102 15.54-10.125 9.0739-5.7734 18.822-14.213 19.149-25.85 0.27761-9.8593-8.0843-18.774-17.59-20.384-2.4238-0.41069-4.8518-0.35602-7.2511 0.18428-1.412 0.31798-0.81443 2.4877 0.59814 2.1696z" fill="#3f3d56"/>
<path d="m594.74 125.17c-9.82-2.2114-20.469 5.609-21.862 15.475-1.6799 11.905 9.3375 21.05 18.258 26.687 9.8156 6.2025 20.466 11.744 25.871 22.588 4.6712 9.3713 5.3481 20.782 1.5071 30.559-7.4345 18.924-28.688 25.437-42.792 38.08-3.4487 3.0914-6.5084 6.6117-8.7243 10.697-2.9084 5.3616-4.0989 11.48-3.8247 17.55 0.55815 12.356 7.2463 23.385 16.326 31.453 9.3505 8.3084 22.116 12.491 30.024 22.449 3.3912 4.27 5.96 9.6694 5.5772 15.249-0.33127 4.8281-2.7265 9.586-6.677 12.447-1.9243 1.3934-4.1428 2.1737-6.5072 2.3465-1.4446 0.10558-1.4379-2.1449 0-2.25 5.1523-0.37656 8.9839-4.7507 10.368-9.4762 1.6112-5.5026-0.35869-11.164-3.5742-15.686-3.6627-5.1508-8.931-8.7979-14.231-12.087-5.3718-3.3337-10.834-6.4851-15.659-10.606-9.0395-7.7208-15.94-18.219-17.557-30.154-0.82057-6.0533-0.3189-12.348 1.841-18.087 1.7345-4.609 4.477-8.735 7.8338-12.321 6.5806-7.03 15.073-11.904 23.053-17.139 7.9853-5.2376 16.155-11.135 20.793-19.726 5.0829-9.4153 5.238-21.319 0.82445-31.02-2.3629-5.1936-5.9756-9.4774-10.422-13.022-4.8427-3.86-10.33-6.8102-15.54-10.125-9.0739-5.7734-18.822-14.213-19.149-25.85-0.27761-9.8593 8.0843-18.774 17.59-20.384 2.4238-0.41069 4.8518-0.35602 7.2511 0.18428 1.412 0.31798 0.81443 2.4877-0.59814 2.1696z" fill="#3f3d56"/>
<polygon points="753 60.583 748.36 92.361 723 92.89 723 65.164" fill="#ffb6b6"/>
<polygon points="753 60.583 748.77 93.361 723.41 93.89 723.41 66.164" opacity=".1"/>
<rect transform="translate(226 619.97) rotate(180)" x="108.51" y="237.34" width="8.982" height="145.3" fill="#f2f2f2"/>
<rect transform="translate(297.86 619.97) rotate(180)" x="144.44" y="237.34" width="8.982" height="145.3" fill="#f2f2f2"/>
<rect transform="translate(409.87 619.97) rotate(180)" x="200.44" y="237.34" width="8.982" height="145.3" fill="#f2f2f2"/>
<rect transform="translate(443.68 619.97) rotate(180)" x="217.35" y="237.34" width="8.982" height="145.3" fill="#f2f2f2"/>
<path d="m103.75 235.22-12.223-63.48c-2.2471-11.67 5.8675-22.8 17.666-24.23l65.356-7.922s8.982 73.441 8.982 69.743 89.028 9.2462 55.741 27.739c-33.286 18.492-123.11 13.209-135.52-1.8492z" fill="#f2f2f2"/>
<polygon points="249.35 343.56 260.41 354.63 275.7 362.53 274.12 376.24 245.13 373.08 241.44 365.7 242.49 359.37 240.39 349.36" fill="#a0616a"/>
<path d="m272.01 370.97 0.90514-11.628 31.245 14.79s2.4195 6.8517-5.1149 7.9058-57.605 1.0541-57.605-1.5812-1.3695-16.127-1.3695-16.127l30.358 8.7483 1.5812-2.1082z" fill="#2f2e41"/>
<polygon points="209.54 312.82 201.53 326.27 197.63 343.03 183.96 344.87 179.89 315.99 186.14 310.6 192.53 310.07 201.71 305.56" fill="#a0616a"/>
<path d="m188.55 341.53 11.493-1.9828-6.6505 33.923s-6.0461 4.0305-8.9211-3.0132c-2.875-7.0436-15.191-55.576-12.636-56.224s15.295-5.2942 15.295-5.2942l-1.0124 31.577 2.4324 1.014z" fill="#2f2e41"/>
<polygon points="174.82 61.132 173.23 93.361 198.59 93.89 198.59 66.164" fill="#a0616a"/>
<polygon points="174.82 61.132 173.23 93.361 198.59 93.89 198.59 66.164" opacity=".1"/>
<path d="m132.02 194.28s-11.624 30.116-3.1701 42.268 48.08 19.021 48.08 19.021l16.379 15.322 43.325 83.48 25.361-5.8119-35.928-85.593s-21.134-34.343-29.059-39.098c-7.9253-4.7552-22.683-22.609-22.683-22.609l-42.305-6.9788z" fill="#2f2e41"/>
<path d="m203.88 196.92 16.276 11.526s57.694 15.42 39.202 51.348-45.967 61.817-45.967 61.817l-24.304-13.737 39.098-54.949-68.686-41.74 44.382-14.266z" fill="#2f2e41"/>
<path d="m351.81 153.11c7.6481 1.5388 13.054 6.7324 12.073 11.6-0.98011 4.8672-7.9739 7.5641-15.625 6.0237-3.0646-0.5734-5.9473-1.8724-8.4069-3.7882l-32.323-6.9293 2.7728-12.775 32.288 6.1102c3.0102-0.81551 6.172-0.89808 9.2207-0.24078z" fill="#a0616a"/>
<path d="m229.76 235.66c5.59 5.4419 7.3132 12.737 3.8494 16.294s-10.802 2.0282-16.393-3.4164c-2.2633-2.1443-3.9802-4.7994-5.007-7.7432l-23.394-23.357 9.2599-9.2274 23.808 22.649c2.9712 0.94804 5.672 2.594 7.8764 4.8001z" fill="#a0616a"/>
<path d="m197.27 82.002h-32.879l-24.184 16.379 2.1134 64.459s4.419 16.187-10.567 31.173c-8.982 8.982-5.8119 14.266-5.8119 14.266l53.364 4.2268 31.965-9.2462-11.624-29.059 2.1134-8.982s21.662-15.322 17.964-31.173c-3.6985-15.851-8.4537-48.609-8.4537-48.609l-14.001-3.4343z" fill="#ccc"/>
<path d="m174.29 176.84-23.776-78.196s-12.152-4.2268-17.436 6.3402 1.3625 50.986 1.3625 50.986l27.697 45.703 44.382 33.815 11.095-12.152-43.325-46.495z" fill="#ccc"/>
<path d="m274.63 136.51-63.778-51.111s-12.416 3.3734-10.81 15.078 29.915 41.31 29.915 41.31l48.666 22.08 55.723 2.847 2.2954-16.295-62.011-13.909z" fill="#ccc"/>
<circle cx="189.88" cy="53.999" r="22.191" fill="#a0616a"/>
<rect x="804.51" y="237.34" width="8.982" height="145.3" fill="#f2f2f2"/>
<rect x="768.58" y="237.34" width="8.982" height="145.3" fill="#f2f2f2"/>
<rect x="712.57" y="237.34" width="8.982" height="145.3" fill="#f2f2f2"/>
<rect x="695.67" y="237.34" width="8.982" height="145.3" fill="#f2f2f2"/>
<path d="m818.25 235.22 12.223-63.48c2.2471-11.67-5.8675-22.8-17.666-24.23l-65.356-7.922s-8.982 73.441-8.982 69.743-89.028 9.2462-55.741 27.739c33.286 18.492 123.11 13.209 135.52-1.8492z" fill="#f2f2f2"/>
<polygon points="672.65 343.56 661.59 354.63 646.3 362.53 647.88 376.24 676.87 373.08 680.56 365.7 679.51 359.37 681.61 349.36" fill="#ffb6b6"/>
<path d="m649.99 370.97-0.90514-11.628-31.245 14.79s-2.4195 6.8517 5.1149 7.9058 57.605 1.0541 57.605-1.5812 1.3695-16.127 1.3695-16.127l-30.358 8.7483-1.5812-2.1082z" fill="#2f2e41"/>
<polygon points="646.47 269.56 639.96 283.79 628.39 296.53 634.65 308.82 660.72 295.75 661.6 287.55 658.41 281.99 656.89 271.87" fill="#ffb6b6"/>
<path d="m634.79 303.15-4.9036-10.582-24.125 24.759s0.12202 7.2653 7.551 5.6256 54.356-19.102 53.436-21.572-4.3409-15.592-4.3409-15.592l-25.4 18.786-2.2172-1.4244z" fill="#2f2e41"/>
<path d="m789.98 194.28s11.624 30.116 3.1701 42.268-48.08 19.021-48.08 19.021l-16.379 15.322-43.325 83.48-25.361-5.8119 35.928-85.593s21.134-34.343 29.059-39.098c7.9253-4.7552 22.683-22.609 22.683-22.609l42.305-6.9788z" fill="#2f2e41"/>
<path d="m745.03 208.32-18.735-6.8355s-45.488-38.694-64.53-3.0538-24.718 72.961-24.718 72.961l25.119 12.183 22.973-63.406 73.389 32.772-13.499-44.621z" fill="#2f2e41"/>
<path d="m639.41 228.29c-5.0221 5.97-6.0126 13.4-2.2128 16.596s10.95 0.94583 15.973-5.0269c2.0392-2.3584 3.4841-5.1708 4.2136-8.202l20.959-25.564-10.13-8.2626-21.442 24.901c-2.8624 1.2383-5.3865 3.1443-7.361 5.5583z" fill="#ffb6b6"/>
<path d="m692.24 235.66c-5.59 5.4419-7.3132 12.737-3.8494 16.294s10.802 2.0282 16.393-3.4164c2.2633-2.1443 3.9802-4.7994 5.007-7.7432l23.394-23.357-9.2599-9.2274-23.808 22.649c-2.9712 0.94804-5.672 2.594-7.8764 4.8001z" fill="#ffb6b6"/>
<path d="m724.73 82.002h32.879l24.184 16.379-2.1134 64.459s-4.419 16.187 10.567 31.173c8.982 8.982 5.8119 14.266 5.8119 14.266l-53.364 4.2268-31.965-9.2462 11.624-29.059-2.1134-8.982s-21.662-15.322-17.964-31.173 8.4537-48.609 8.4537-48.609l14.001-3.4343z" fill="#6c63ff"/>
<path d="m747.71 176.84 23.776-78.196s12.152-4.2268 17.436 6.3402-1.3625 50.986-1.3625 50.986l-27.697 45.703-44.382 33.815-11.095-12.152 43.325-46.495z" fill="#6c63ff"/>
<path d="m689.42 167.21 18.022-79.719s11.812-5.1 17.851 5.0546 2.3515 50.95 2.3515 50.95l-24.298 47.597-41.803 36.955-11.95-11.312 39.827-49.525z" fill="#6c63ff"/>
<rect x="349" y="125.58" width="7" height="256" fill="#3f3d56"/>
<polygon points="350.7 161.16 287.2 109.18 288.8 107.99 352.3 159.97" fill="#3f3d56"/>
<path d="m354 130.08h-4c-6.8926 0-12.5-5.6074-12.5-12.5v-34c0-6.8926 5.6074-12.5 12.5-12.5h4c6.8926 0 12.5 5.6074 12.5 12.5v34c0 6.8926-5.6074 12.5-12.5 12.5z" fill="#6c63ff"/>
<ellipse cx="286.5" cy="97.083" rx="18.5" ry="30.5" fill="#6c63ff"/>
<path d="m353 114.58c-10.722 0-31-1.4629-31-7 0-2.7188 4.8115-4.7354 14.301-5.9941l0.2627 1.9824c-10.255 1.3613-12.563 3.4033-12.563 4.0117 0 1.6973 10.236 5 29 5s29-3.3027 29-5c0-0.85449-3.5312-3.0166-14.446-4.2412l0.22266-1.9883c7.4009 0.83105 16.223 2.5859 16.223 6.2295 0 5.5371-20.278 7-31 7z" fill="#3f3d56"/>
<rect transform="translate(1195 507.17) rotate(180)" x="594" y="125.58" width="7" height="256" fill="#3f3d56"/>
<polygon points="599.3 161.16 662.8 109.18 661.2 107.99 597.7 159.97" fill="#3f3d56"/>
<path d="m583.5 117.58v-34c0-6.8926 5.6074-12.5 12.5-12.5h4c6.8926 0 12.5 5.6074 12.5 12.5v34c0 6.8926-5.6074 12.5-12.5 12.5h-4c-6.8926 0-12.5-5.6074-12.5-12.5z" fill="#6c63ff"/>
<ellipse cx="663.5" cy="97.083" rx="18.5" ry="30.5" fill="#6c63ff"/>
<path d="m597 114.58c-10.722 0-31-1.4629-31-7 0-3.6436 8.8223-5.3984 16.223-6.2295l0.22266 1.9883c-10.915 1.2246-14.446 3.3867-14.446 4.2412 0 1.6973 10.236 5 29 5s29-3.3027 29-5c0-0.6084-2.3081-2.6504-12.563-4.0117l0.2627-1.9824c9.4893 1.2588 14.301 3.2754 14.301 5.9941 0 5.5371-20.278 7-31 7z" fill="#3f3d56"/>
<circle cx="736.02" cy="49.77" r="23.625" fill="#ffb6b6"/>
<path d="m737.91 18.008c-0.68361 0.39905-1.5993-0.2047-1.8185-0.9653s0.03614-1.5682 0.28935-2.3181l1.2747-3.7754c0.90403-2.6776 1.8635-5.4488 3.8214-7.4868 2.9552-3.076 7.6516-3.8586 11.879-3.2917 5.4292 0.72803 10.786 3.6679 13.31 8.5294s1.4497 11.645-3.1118 14.678c6.5011 7.4514 8.7673 15.756 8.4095 25.638s-11.127 18.977-18.15 25.939c-1.5684-0.95072-2.9942-5.4062-2.1317-7.0248s-0.37325-3.4937 0.69487-4.9846 1.9617 0.88304 0.88189-0.59937c-0.6814-0.93543 1.9781-3.0874 0.96523-3.6473-4.899-2.708-6.5284-8.8144-9.6053-13.491-3.7113-5.6403-10.063-9.46-16.785-10.094-3.7029-0.34908-7.614 0.28317-10.649 2.4329s-5.0001 5.9913-4.2963 9.6434c-1.8228-1.8508-2.7301-4.5631-2.3879-7.1381s1.9265-4.9562 4.1694-6.2667c-1.3638-4.51-0.19547-9.6977 2.9699-13.188s16.006-2.8956 20.627-1.9771" fill="#2f2e41"/>
<path d="m738.63 35.251c6.1207 0.66073 10.54 5.9626 14.272 10.859 2.1509 2.8221 4.4039 5.9387 4.3499 9.4866-0.05459 3.587-2.4529 6.6637-3.5991 10.063-1.8735 5.5565-0.04755 12.167 4.4122 15.975-4.4067 0.83623-9.1705-2.4679-9.9312-6.8883-0.8856-5.1458 3.0152-10.112 2.5532-15.313-0.40701-4.5822-4.018-8.1087-7.0878-11.535-3.0698-3.4261-5.9529-7.9724-4.5407-12.35" fill="#2f2e41"/>
<path d="m178.5 16.848s-8.8955-6.4245-16.803 7.4129c-5.4012 9.4521-8.2659 27.436-9.5391 37.885-0.58601 4.8093 1.9074 9.467 6.2285 11.658l28.02 14.207s-10.378-39.535 3.9536-45.466c14.332-5.9303 13.837-4.4477 13.837-4.4477s11.366 24.71-3.4594 35.582l12.355 7.9071s8.4013-46.454-6.9187-55.35c-15.32-8.8955-11.861-15.32-27.675-9.3897z" fill="#2f2e41"/>
<path d="m921 383.58h-921v-2h921c0.55228 0 1 0.44771 1 1s-0.44771 1-1 1z" fill="#3f3d56"/>
</svg>
